<mxfile host="app.diagrams.net" agent="Mozilla/5.0 (Windows NT 10.0; Win64; x64) AppleWebKit/537.36 (KHTML, like Gecko) Chrome/129.0.0.0 Safari/537.36" version="24.7.16">
  <diagram name="Page-1" id="lITY1SeaFduGjeRfuTEC">
    <mxGraphModel dx="1216" dy="1111" grid="1" gridSize="10" guides="1" tooltips="1" connect="1" arrows="1" fold="1" page="1" pageScale="1" pageWidth="1390" pageHeight="980" math="0" shadow="0">
      <root>
        <mxCell id="0" />
        <mxCell id="1" parent="0" />
        <mxCell id="i7lR52N0g9X_YfiU3cEO-1" value="User&lt;div&gt;&lt;br&gt;&lt;/div&gt;" style="shape=umlActor;verticalLabelPosition=bottom;verticalAlign=top;html=1;outlineConnect=0;" parent="1" vertex="1">
          <mxGeometry x="625" y="20" width="30" height="60" as="geometry" />
        </mxCell>
        <mxCell id="xA_JIgJ08SUsMaywjVti-5" style="edgeStyle=orthogonalEdgeStyle;rounded=0;orthogonalLoop=1;jettySize=auto;html=1;entryX=0;entryY=0.5;entryDx=0;entryDy=0;" edge="1" parent="1" source="i7lR52N0g9X_YfiU3cEO-10" target="i7lR52N0g9X_YfiU3cEO-46">
          <mxGeometry relative="1" as="geometry" />
        </mxCell>
        <mxCell id="i7lR52N0g9X_YfiU3cEO-10" value="Query Manager" style="ellipse;whiteSpace=wrap;html=1;" parent="1" vertex="1">
          <mxGeometry x="505" y="350" width="120" height="80" as="geometry" />
        </mxCell>
        <mxCell id="xA_JIgJ08SUsMaywjVti-4" style="edgeStyle=orthogonalEdgeStyle;rounded=0;orthogonalLoop=1;jettySize=auto;html=1;entryX=0.75;entryY=1;entryDx=0;entryDy=0;" edge="1" parent="1" source="i7lR52N0g9X_YfiU3cEO-46" target="xA_JIgJ08SUsMaywjVti-1">
          <mxGeometry relative="1" as="geometry">
            <Array as="points">
              <mxPoint x="730" y="290" />
              <mxPoint x="670" y="290" />
            </Array>
          </mxGeometry>
        </mxCell>
        <mxCell id="i7lR52N0g9X_YfiU3cEO-46" value="Obscurity Engine" style="rounded=0;whiteSpace=wrap;html=1;" parent="1" vertex="1">
          <mxGeometry x="670" y="360" width="120" height="60" as="geometry" />
        </mxCell>
        <mxCell id="i7lR52N0g9X_YfiU3cEO-76" value="" style="edgeStyle=orthogonalEdgeStyle;rounded=0;orthogonalLoop=1;jettySize=auto;html=1;exitX=0.5;exitY=0;exitDx=0;exitDy=0;startArrow=classic;entryX=0.25;entryY=1;entryDx=0;entryDy=0;" parent="1" source="i7lR52N0g9X_YfiU3cEO-10" target="xA_JIgJ08SUsMaywjVti-1" edge="1">
          <mxGeometry relative="1" as="geometry">
            <mxPoint x="640" y="350" as="sourcePoint" />
            <mxPoint x="640" y="230" as="targetPoint" />
          </mxGeometry>
        </mxCell>
        <mxCell id="i7lR52N0g9X_YfiU3cEO-78" value="Backend Processes" style="rounded=1;whiteSpace=wrap;html=1;" parent="1" vertex="1">
          <mxGeometry x="360" y="280" width="120" height="170" as="geometry" />
        </mxCell>
        <mxCell id="i7lR52N0g9X_YfiU3cEO-80" value="Frontend" style="rounded=1;whiteSpace=wrap;html=1;" parent="1" vertex="1">
          <mxGeometry x="360" y="155" width="120" height="90" as="geometry" />
        </mxCell>
        <mxCell id="xA_JIgJ08SUsMaywjVti-2" style="edgeStyle=orthogonalEdgeStyle;rounded=0;orthogonalLoop=1;jettySize=auto;html=1;startArrow=classic;" edge="1" parent="1" source="xA_JIgJ08SUsMaywjVti-1">
          <mxGeometry relative="1" as="geometry">
            <mxPoint x="640" y="110" as="targetPoint" />
          </mxGeometry>
        </mxCell>
        <mxCell id="xA_JIgJ08SUsMaywjVti-1" value="UI" style="rounded=0;whiteSpace=wrap;html=1;" vertex="1" parent="1">
          <mxGeometry x="580" y="170" width="120" height="60" as="geometry" />
        </mxCell>
      </root>
    </mxGraphModel>
  </diagram>
</mxfile>
